<svg xmlns="http://www.w3.org/2000/svg" width="124" height="125" fill="none" viewBox="0 0 124 125">
  <g clip-path="url(#a)">
    <path fill="#F1F0FE" d="m106.157 107.304.167-.001a.228.228 0 0 0-.167.001Zm-.164.27.139-.259c-.216.114-.284.527-.139.259Zm.139-.259.025-.011h-.019l-.006.011Z"/>
    <path fill="#F1F0FE" d="M118.507 48.235c-1.839-9.13-7.834-17.876-16.674-20.808-6.921-2.295-14.683-.77-21.103 2.687-6.42 3.457-11.696 8.686-16.581 14.1-5.777 6.403-11.609 13.488-19.828 16.1-5.357 1.702-11.244 1.264-16.581-.503-3.429-1.136-6.869-2.83-10.457-2.422-5.142.583-8.849 5.333-10.659 10.181-5.054 13.541.481 29.285 10.366 39.83l89.149-.095c5.316-9.827 6.952-20.745 9.983-31.499 2.526-8.964 4.225-18.44 2.386-27.57Z"/>
    <path fill="#F1F5F9" d="M101.319 19.087h-39.43v26.488h39.43V19.087Z"/>
    <path fill="#60A5FA" d="M63.741 20.707v21.515c6.202-7.227 12.293-14.54 18.74-21.515H63.74Z"/>
    <path fill="#fff" d="M82.48 20.707c-6.447 6.976-12.537 14.288-18.739 21.515v1.733h9.133a835.484 835.484 0 0 1 17.472-23.248H82.48Z"/>
    <path fill="#60A5FA" d="M99.467 23.63c-5.143 6.772-10.823 13.124-15.365 20.326h15.365V23.63Z"/>
    <path fill="#fff" d="M99.467 20.707h-1.258c-6.132 7.604-12.152 15.258-17.823 23.248h3.716c4.542-7.201 10.222-13.553 15.365-20.325v-2.923Z"/>
    <path fill="#60A5FA" d="M90.346 20.707a835.484 835.484 0 0 0-17.472 23.248h7.512c5.671-7.99 11.69-15.644 17.823-23.248h-7.863Z"/>
    <path fill="#fff" d="M57.671 80.641 44.497 85.63l-2.911-5.39c.183-.19.372-.379.555-.572.31-.33.613-.665.91-1.005.018-.02.102-.094.134-.141l.067-.037c.276-.132.546-.276.816-.414.482-.246.963-.494 1.441-.747a68.864 68.864 0 0 0 5.459-3.219c.61-.397 1.946-1.106 1.475-2.021a.88.88 0 0 0-.932-.469c-.414.07-.833.21-1.238.345.042-.035.085-.067.124-.102.372-.32.73-.662 1.057-1.031.265-.3.627-.64.444-1.08-.144-.344-.524-.473-.858-.332-.335.14-.653.367-.96.59.102-.101.203-.205.305-.307.305-.305.573-.682.414-1.13-.169-.48-.625-.551-1.047-.345-.486.235-.954.525-1.425.79-.777.44-1.548.888-2.292 1.382-.493.327-.962.682-1.419 1.049.296-.694.548-1.404.767-2.125.213-.72.513-1.808-.372-2.215-.154-.07-.3-.035-.4.104-1.041 1.473-2.048 2.974-3.112 4.43-.508.691-1.069 1.304-1.773 1.8l-.394.283a1.11 1.11 0 0 1-.333.158l-2.857-8.03c1.553-.798 9.127-4.588 14.694-5.364.732 2.001 5.176 14.218 6.835 20.157Z"/>
    <path fill="#11009A" d="M70.716 89.927h1.986c.955 0 1.818.567 2.198 1.443l5.401 12.452c-.002-.025-.005-.047-.005-.069-.136-2.28-.131-4.822 1.312-6.729.092-.124.191-.24.293-.35-.013-1.247-.013-6.626.818-11.41.786-4.533.9-9.942.858-11.755-.193.412-.372.83-.52 1.26a15.862 15.862 0 0 0-.692 2.854c-.023.156-.224.204-.343.14-1.565-.83-3.184-1.56-4.756-2.382-.102-.054-.25-.111-.397-.18-.008.004-.013.012-.02.017a.283.283 0 0 1-.087.067 98.043 98.043 0 0 0-3.303 2.683c-2.071 1.766-4.05 3.65-5.838 5.706-1.689 1.94-3.177 4.048-4.491 6.252h7.045a.257.257 0 0 1-.01-.074c.028-.526.16-1.056.266-1.57.109-.513.235-1.022.382-1.525.302-1.034.684-2.024 1.096-3.02.077-.186.382-.112.31.086-.365.977-.642 2.002-.89 3.016-.12.491-.226.984-.325 1.48-.107.531-.16 1.082-.288 1.608Zm40.332 17.565a.437.437 0 0 1 0 .873c-1.823.179-3.668.159-5.5.206-1.766.045-3.537.02-5.303.025-3.6.012-7.202.017-10.803.02-12.767.01-25.534.072-38.3.042-6.352-.012-12.703-.022-19.052-.06-6.416-.039-12.844.043-19.25-.349-.412-.025-.412-.615 0-.64 6.604-.404 13.24-.335 19.858-.355-.896-1.646-1.474-3.41-1.677-5.28a13.354 13.354 0 0 1-.002-2.936c.052-.476.126-.955.23-1.423.052-.239.124-.472.196-.707.03-.1.047-.196.087-.278a11.2 11.2 0 0 0-.85-.136c-.182-.02-.29-.127-.308-.305-.114-1.139-.097-2.304-.084-3.445.01-1.052.03-2.108.101-3.157l.367-.008c.02 1.057.025 2.108.065 3.165.042 1.066.131 2.135.156 3.201.543.134 1.113.199 1.664.278.603.087 1.208.15 1.815.209a44.12 44.12 0 0 0 3.574.198 44.28 44.28 0 0 0 3.581-.102c.595-.04 1.188-.096 1.78-.163.403-.045.797-.12 1.191-.137l-1.957-4.51a1.279 1.279 0 0 1 1.173-1.79h5.774l.243-.056.012.055h12.792a25.113 25.113 0 0 1 1.868-3.25c-.164-.337-.283-.701-.405-1.05a31.441 31.441 0 0 1-.419-1.352 45.884 45.884 0 0 1-.677-2.627c-1.448-6.356-1.766-12.928-3.566-19.21-.052-.18.223-.253.28-.077.563 1.746 1.002 3.53 1.377 5.322.287 1.387.528 2.78.756 4.18a.09.09 0 0 1 .02.029c.774-.779 1.585-1.523 2.383-2.274a797.219 797.219 0 0 1 4.549-4.243l.592-.551c-.65-.513-1.245-1.096-1.855-1.66a414.587 414.587 0 0 1-2.073-1.926c-2.078-1.95-4.132-4.097-6.646-5.483a10.232 10.232 0 0 0-4.212-1.255c-1.493-.11-2.988.027-4.476.163.003.013.008.025.01.038.025.129-.017.263-.134.332-1.041.608-2.053 1.247-3.013 1.977-.975.739-1.848 1.584-2.75 2.408a.238.238 0 0 1-.365-.048c-.496-.783-1.044-1.545-1.53-2.338l-.24.054-.18-.778-.02-.035c-.577 1.076-1.316 2.068-1.968 3.097a.238.238 0 0 1-.365.048c-.902-.824-1.776-1.67-2.75-2.408-.923-.7-1.892-1.317-2.89-1.905-1.19.022-2.345.367-3.39.935-1.976 1.079-3.444 2.815-4.778 4.588a96.353 96.353 0 0 0-3.864 5.51l-.295-.176c.62-1.128 1.329-2.202 2.033-3.28 2.31-3.535 5.4-8.029 10.074-8.14a8.46 8.46 0 0 1 .622-1.823.27.27 0 0 1 .244-.139c.699.062 1.398.117 2.098.176-.05-.126-.085-.26-.13-.377A55.656 55.656 0 0 0 35.56 50c-.426-.968-.915-1.922-1.309-2.905a4.376 4.376 0 0 1-2.88.181c-1.383-.399-2.397-1.445-2.95-2.745-.539-1.265-.73-2.84-.095-4.107.543-1.089 1.808-1.517 2.961-1.346-.634-.98-1.292-1.93-1.765-3.014-.819-1.877-1.615-4.235-.814-6.254.32-.804.905-1.48 1.759-1.729.57-.163 1.264-.126 1.765.214a8.534 8.534 0 0 1 .556-4.274c.627-1.532 1.669-2.727 2.946-3.757 2.257-1.815 4.893-3.29 7.777-3.77 2.577-.428 5.355-.01 7.562 1.437 1.11.726 2.12 1.736 2.678 2.953.63 1.377.457 2.875-.163 4.224a6.79 6.79 0 0 1-1.858 2.4c.146.045.285.107.407.167.382.19.716.49.98.823.627.786.835 1.778.786 2.77-.058 1.163-.402 2.309-.737 3.418-.174.575-.36 1.145-.556 1.716a53.9 53.9 0 0 0-.17.498c1.696.355 2.6 2.366 2.78 3.966.225 2.066-.77 3.992-2.711 4.808-.018.008-.032.01-.05.015-.03.102-.06.204-.096.305-.831 2.331-2.92 3.996-5.151 4.908-.035.015-.067.025-.102.04.002.017.007.032.01.05l.03.272c.02.176.034.352.059.526.025.174.042.352.052.528.005.122.025.295-.015.43.66-.055 1.32-.107 1.98-.167a.27.27 0 0 1 .242.14c.236.495.42 1.004.556 1.532 1.721-.266 3.474-.476 5.213-.268 2.916.35 5.354 2.001 7.507 3.906 1.16 1.027 2.281 2.103 3.417 3.16.633.587 1.258 1.177 1.885 1.768.578.545 1.175 1.074 1.704 1.664.057-.052.111-.104.166-.156.273-.251.603-.692 1.012-.675.406.017.813.451 1.118.687.382.295.754.605 1.119.922.084.072.106.239.042.328a48.212 48.212 0 0 1-1.927 2.53c.164.168.315.359.464.53.255.288.51.573.761.863.489.566.97 1.139 1.458 1.704a83.559 83.559 0 0 1 2.525 3.087c.09-.148.2-.287.265-.401.44-.772.846-1.558 1.312-2.312.12-.195.352-.148.454-.01.151.003.3.003.451.01a.864.864 0 0 1 .003-.138 7.085 7.085 0 0 1 .141-.799c.04-.166.08-.335.13-.501.022-.074.039-.159.064-.24a9.653 9.653 0 0 1-.985-.31c-1.064-.397-2.068-.995-2.837-1.843-.856-.948-1.364-2.153-1.577-3.403a12.324 12.324 0 0 1-.157-2.135c-.563.174-1.27-.727-1.535-1.114-.758-1.103-.99-2.693-.486-3.945.26-.648.89-1.265 1.647-1.047.243.072.429.223.578.42-.335-1.53-.566-3.12-.33-4.653.223-1.449 1.275-3.08 2.872-3.13a7.16 7.16 0 0 1-.819-1.364c-.364-.806-.605-1.714-.58-2.604.02-.749.278-1.605.873-2.1.744-.623 1.704-.298 2.425.196.48.324.893.726 1.238 1.18-.074-.734-.064-1.478.184-2.177.282-.792.892-1.488 1.698-1.766.918-.315 1.754.144 2.443.729a7.363 7.363 0 0 1 1.468 1.706c.114-.543.447-1.032.9-1.389 1.533-1.2 3.537-.327 4.839.789 1.35 1.158 2.309 2.738 2.783 4.45.692-.214 1.443-.01 2.028.423 1.523 1.129 1.453 3.184 1.158 4.86a19.18 19.18 0 0 1-.761 2.945c-.164.464-.342.922-.538 1.376-.151.352-.313.74-.53 1.069.76.1 1.472.469 1.944 1.12.768 1.062.428 2.483-.05 3.592-.781 1.803-2.478 3.08-4.36 3.326-.002.002-.002.005-.005.007-.977 2.128-2.887 3.53-5.027 4.32.09.184.171.372.246.563.05.132.096.263.131.397a5.02 5.02 0 0 1 .052.194c.166-.082.33-.167.491-.26.12-.068.328-.04.39.1.396.93.734 1.888 1.2 2.788.007.015.01.03.015.045.037.005.077.01.116.017.095.02.186.042.28.07.092.025.184.052.276.079.05.015.099.03.146.05.025.007.047.017.07.025.054.024.094.05.129.084.148-.243.31-.481.483-.71l.278.144c-.248.367-.474.75-.672 1.146l-.352-.119c-.013-.002-.025-.002-.038-.007a.912.912 0 0 1-.114-.047l-.131-.06-.064-.03-.033-.015a1.862 1.862 0 0 0-.124-.05l-.28-.11c-.052-.023-.107-.043-.156-.065 0 0-.003-.003-.005-.003h-.003c0-.002-.002-.002-.005-.002-.002-.003-.005-.005-.007-.005a33.144 33.144 0 0 0-2.383 1.713c-.78.62-1.575 1.26-2.242 2.002-.137.153-.377.062-.434-.114-.4-1.208-.774-2.443-1.24-3.631a70.02 70.02 0 0 1-.057 3.403c-.09 2.16-.3 5.349-.809 8.275-.781 4.499-.823 9.526-.816 11.118 1.382-1.29 3.333-1.538 5.208-1.61a86.942 86.942 0 0 1 7.145.023c-.61-2.205-.935-4.511-1.027-6.818-.094-.086-.17-.2-.238-.287-.124-.166-.25-.325-.364-.496a5.511 5.511 0 0 1-.566-1.144c-.064-.168.219-.285.29-.121a5.761 5.761 0 0 0 .856 1.381 36.785 36.785 0 0 1 .027-2.34c.008-.177.273-.177.276 0 .005.93.04 1.857.106 2.782.043.07.065.144.05.23a.126.126 0 0 1-.025.052c.05.633.114 1.265.204 1.898.23 1.62.565 3.221.947 4.813.005.025.002.047.002.07.067.005.134.005.204.01.01 0 .022 0 .034.002a.07.07 0 0 1 .02-.01l.985-.275.099.352c2.234.154 4.444.414 6.654.791.181.03.139.337-.042.32a138.946 138.946 0 0 0-7.934-.593 95.329 95.329 0 0 0-6.993-.06c-1.942.06-4.152.098-5.64 1.534-1.55 1.495-1.716 3.844-1.672 5.865.005.3.013.6.02.898.005.203.005.416.09.605.28.632.615-.499.682-.712a12.23 12.23 0 0 0 .401-1.627c.097-.548.12-1.106.236-1.649.047-.226.35-.147.37.049.037.333.017.675-.025 1.015.062.436.136.873.35 1.265.205.381.523.662.912.855a2.46 2.46 0 0 0 1.297.226c.243-.02.484-.08.712-.159.171-.062.325-.136.49-.188a3.165 3.165 0 0 1-.336-.105c-.645-.238-1.38-.699-1.684-1.344-.07-.146.099-.282.223-.173.29.258.543.528.878.729.315.188.652.33 1.01.411a3.076 3.076 0 0 0 2.112-.243 3.282 3.282 0 0 0 1.468-1.54c.052-.114.228-.406.162-.538-.097-.193-.382-.084-.511-.01-.372.216-.677.551-1.04.784-.02.012-.04.017-.057.022-.047.087-.094.176-.148.261-.035.057-.07.116-.114.166-.052.059-.107.074-.174.111-.129.072-.3-.047-.255-.195.02-.07.02-.127.059-.191.03-.048.07-.092.1-.142a3.16 3.16 0 0 0 .185-.312 3.219 3.219 0 0 0 .357-1.315c.013-.23-.037-.476.005-.701.023-.122.196-.13.253-.033.13.213.13.533.127.776a3.717 3.717 0 0 1-.09.757c-.012.062-.034.119-.052.178.491-.483 1.206-1.024 1.707-.471.275.3.146.767-.072 1.178.022.003.047.01.072.023l-.224.24c-.109.169-.223.32-.31.429a3.718 3.718 0 0 1-1.77 1.208 3.413 3.413 0 0 1-1.493.116.177.177 0 0 1-.04.154c-.332.427-1.034.566-1.55.608a2.771 2.771 0 0 1-1.508-.295c-.645-.333-1.034-.913-1.227-1.57-.005.025-.01.052-.018.079-.141.657-.32 1.334-.592 1.952-.162.367-.529.732-.958.513-.01-.005-.017-.012-.027-.017l.325.749h15.84v1.637c1.5.002 3.003.005 4.503.01.72.002 1.436.002 2.155.005.854.002 1.707.01 2.56.032 1.637.042 3.281.03 4.91.188ZM96.781 61.471c.384-.965.605-2.301-.127-3.15-.78-.907-2.043-1.011-3.11-.58-1.116.456-1.904 1.421-2.51 2.428-.101.169-.359.017-.262-.154.47-.823 1.074-1.612 1.837-2.172-.014 0-.03 0-.044-.003-.308-.062-.546-.372-.722-.612a3.962 3.962 0 0 1-.486-.945c-.27-.734-.322-1.523-.298-2.3.043-1.306.26-2.663.876-3.83-1.877.994-4.005 1.696-6.118 1.812-2.046.114-4.261.008-6.17-.791a7.784 7.784 0 0 1-2.721-1.914c-.176.523-.382 1.036-.556 1.562a33.546 33.546 0 0 0-.602 2.014 46.745 46.745 0 0 0-.94 4.322 39.95 39.95 0 0 0-.459 3.718c-.092 1.29-.107 2.611.198 3.876.28 1.168.846 2.22 1.744 3.028.813.732 1.828 1.213 2.874 1.505 2.336.653 4.977.549 7.309-.059 2.328-.605 4.513-1.94 5.696-4.075-.444 0-.892-.052-1.336-.173-.172-.047-.142-.34.042-.315 1.29.168 2.66-.057 3.782-.732a5.143 5.143 0 0 0 2.103-2.46Zm-.07-10.828c.102-1.011.08-2.19-.585-3.025-.523-.655-1.364-1.06-2.19-.873a.186.186 0 0 1-.129.035c-.012.005-.025.007-.035.01-.148.049-.248-.157-.146-.251-.59-1.9-1.813-3.708-3.49-4.806-.84-.553-1.944-.962-2.938-.588-.848.317-1.577 1.195-1.369 2.14.05.218-.27.377-.374.159a6.683 6.683 0 0 0-1.498-2.014c-.595-.545-1.38-1.099-2.222-.85-.752.223-1.302.912-1.516 1.646-.265.908-.141 1.878.005 2.795.035.233-.292.424-.414.174-.434-.888-1.14-1.585-2.009-2.054-.431-.235-.935-.401-1.383-.114-.32.204-.526.556-.648.905-.528 1.526.22 3.324 1.173 4.517 1.119 1.406 2.696 2.284 4.442 2.653.91.191 1.84.266 2.768.29.915.023 1.832.02 2.74-.109 1.895-.268 3.705-.9 5.406-1.768.219-.114.41.208.194.332l-.025.015c-.727 1.19-.853 2.639-.878 4.003-.012.731.055 1.475.29 2.17.107.307.25.593.424.865.152.239.39.454.474.727a.16.16 0 0 1 0 .097 4.182 4.182 0 0 1 1.23-.566 3.38 3.38 0 0 1 .833-.111c.137-.514.425-1.015.62-1.506.209-.523.392-1.056.556-1.594.325-1.074.583-2.185.694-3.304Zm-.535 56.611v-.89H81.405l.38.878c3.337 0 6.675 0 10.013.002 1.461.003 2.92.008 4.378.01Zm-6.448-33.988c-.385-.757-.767-1.513-1.037-2.319-.784.293-1.543.675-2.304 1.02-.789.354-1.57.724-2.353 1.09.272.583.55 1.159.78 1.764.239.622.46 1.255.643 1.895.662-.6 1.305-1.22 2.001-1.786a27.61 27.61 0 0 1 2.27-1.664Zm-1.92-2.465c-.042-.094-.054-.219-.077-.305-.032-.124-.062-.25-.096-.377-.05-.189-.11-.375-.17-.558a12.58 12.58 0 0 1-1.693.441c-1.979.375-4.107.454-6.096.003-.015.079-.022.158-.035.238-.02.159-.042.315-.059.474l-.06.476c-.02.146-.032.29-.069.431a23.996 23.996 0 0 1 3.765.618c.178.047.414.074.555.208a.32.32 0 0 1 .077.1c.784-.34 1.567-.68 2.346-1.03.533-.24 1.079-.469 1.612-.72Zm-4.44 2.135c.073-.159.075-.11-.056-.161-.392-.154-.863-.213-1.275-.3a35.93 35.93 0 0 0-1.237-.226c-.764-.126-1.535-.2-2.294-.337-.246.464-.506.92-.774 1.371-.134.226-.27.45-.402.675-.062.104-.124.208-.183.312-.013.025-.107.169-.162.256.343.21.747.37 1.094.553.469.245.938.493 1.401.746.834.452 1.647.935 2.485 1.38.122-.76.3-1.506.553-2.235a16.294 16.294 0 0 1 .727-1.781c.04-.084.084-.169.124-.253Zm-2.395 34.303-6.755-15.574a1.653 1.653 0 0 0-1.516-.995h-.314l7.184 16.567c.469.002.935.002 1.401.002Zm-2.212-.002-7.184-16.566H43.8a.524.524 0 0 0-.447.243.524.524 0 0 0-.044.508l6.842 15.775c7.532-.007 15.063.003 22.595.03 2.004.007 4.01.007 6.014.01Zm-3.368-54.83c.313-1.034.623-2.136 1.099-3.123-1.505.164-2.272 1.7-2.396 3.093-.077.863-.012 1.73.04 2.591.037.623.107 1.25.206 1.873a40.513 40.513 0 0 1 1.051-4.434Zm.811 22.506c-.885-1.097-1.775-2.188-2.643-3.296-.474-.608-.96-1.206-1.444-1.803-.243-.3-.481-.603-.722-.903-.121-.151-.26-.305-.386-.466-1.734 2.09-3.656 4.042-5.759 5.75.171.162.313.368.459.537.228.263.451.53.674.798.432.52.861 1.044 1.288 1.57.441.54.882 1.081 1.319 1.624l.655.819c.143.18.337.372.441.59 1.927-1.865 3.995-3.589 6.118-5.22Zm-2.353-14.555c.077-.859.19-1.714.327-2.565-.29-.575-.632-1.488-1.406-1.076-.603.322-.737 1.232-.74 1.85-.004.65.155 1.3.472 1.87.154.275.337.533.558.759.156.16.442.473.7.533.014-.459.046-.915.089-1.371Zm-1.248 5.14a22.622 22.622 0 0 0-1.245-.984c-.106-.077-.24-.213-.364-.258-.162-.057-.211.045-.313.139-.24.223-.478.449-.719.672-.873.814-1.743 1.624-2.616 2.435-1.739 1.62-3.46 3.281-5.273 4.819.449.876.972 1.674 1.731 2.321 1.652-1.322 3.244-2.7 4.72-4.223a42.575 42.575 0 0 0 2.234-2.502.153.153 0 0 1 .065-.082 42.929 42.929 0 0 0 1.78-2.336ZM69.76 80.452c-.24-.164-.422-.467-.6-.685l-.663-.809a338.19 338.19 0 0 1-2.579-3.221 45.956 45.956 0 0 1-.6-.779c-.124-.163-.275-.327-.387-.506-.327.26-.66.516-.997.767-.099.072-.24.027-.322-.043-.58-.488-1.124-1.076-1.525-1.738.2 1.277.399 2.557.62 3.832.277 1.602.58 3.199.957 4.779.183.768.382 1.535.603 2.296.176.6.411 1.203.58 1.81.02-.024.034-.05.054-.076 1.446-2.024 3.09-3.887 4.859-5.627ZM54.167 43.476c.456-.759.595-1.634.555-2.512-.064-1.458-.84-3.4-2.418-3.683l-.074.196.06.39c.205 1.378.399 2.767.49 4.158.065.955.05 1.94-.13 2.887a3.893 3.893 0 0 0 1.517-1.436Zm-.73-19.607c.187-.724.204-1.45-.019-2.167-.2-.648-.566-1.238-.995-1.756-.751-.91-1.716-1.634-2.775-2.148-2.266-1.103-4.922-1.178-7.328-.525-2.629.711-5.136 2.227-7.12 4.084-1.925 1.803-2.897 4.501-2.485 7.12a.235.235 0 0 1-.102.236c0 .002 0 .005-.002.005-.008.124-.159.238-.27.153-.348-.26-.685-.429-1.127-.431a2.146 2.146 0 0 0-1.205.364c-1.582 1.067-1.183 3.515-.734 5.045.553 1.885 1.528 3.603 2.49 5.3.008.014.01.03.012.044.655.204 1.233.605 1.734 1.086.102-.793.255-1.58.345-2.375.101-.898.19-1.8.22-2.706.033-.9.005-1.808-.116-2.703-.11-.801-.35-1.582-.466-2.379-.114-.067-.16-.235-.01-.32 1.021-.58 2.147-.937 3.306-1.123 2.063-.33 4.163-.121 6.192.322 1.922.42 4.035 1.131 5.97.486-.44-.168-.88-.334-1.32-.505-.233-.092-.218-.47.062-.462 2.686.06 5.099-2.115 5.744-4.645Zm-.175 7.919c.109-.933.057-1.902-.462-2.713a2.5 2.5 0 0 0-.813-.806 1.955 1.955 0 0 0-.471-.211c-.137-.04-.27-.055-.4-.1a6.55 6.55 0 0 1-.907.492c.848 2.688 1.448 5.468 1.9 8.253a9.51 9.51 0 0 0 .104-.35c.141-.5.267-1.006.396-1.51.258-1 .531-2.028.653-3.055ZM52.096 44.44c.174-1.28.052-2.592-.084-3.869a72.289 72.289 0 0 0-.558-4.062c-.442-2.654-1.06-5.26-1.79-7.847a5.9 5.9 0 0 1-.928.233c.31.12.62.238.932.352.181.065.256.338.057.44-1.034.533-2.224.679-3.373.577-1.116-.096-2.212-.392-3.295-.667a17.58 17.58 0 0 0-3.15-.518c-2.053-.142-4.114.146-6.012.955.402.706.556 1.597.655 2.38.117.903.137 1.818.097 2.728a22.74 22.74 0 0 1-.285 2.716c-.152.925-.28 1.867-.504 2.78.189.208.367.427.53.647.098.132-.123.298-.227.174-.814-.965-1.863-1.92-3.187-2.006-1.186-.08-2.2.543-2.505 1.718-.33 1.27.03 2.584.697 3.678.63 1.04 1.644 1.758 2.86 1.927.572.08 1.158.012 1.703-.174.276-.091.533-.22.781-.37.244-.145.509-.235.747-.389.146-.094.362.102.248.248-.243.32-.439.58-.794.782-.034.02-.072.037-.106.054a.136.136 0 0 1 .129.052 10.66 10.66 0 0 0 6.296 3.896c2.33.474 4.816.107 6.912-1.016 2.12-1.136 3.817-2.969 4.154-5.42Zm-2.755 62.756L44.815 96.76c-.417.13-.86.164-1.302.221a38.38 38.38 0 0 1-5.48.31 35.336 35.336 0 0 1-3.694-.228 45.88 45.88 0 0 1-1.74-.238 16.19 16.19 0 0 1-.678-.122c-.002.102-.034.206-.057.32-.044.24-.077.486-.114.73a15.666 15.666 0 0 0-.084 4.117c.203 1.844.754 3.699 1.642 5.331.01.018.014.032.02.05.371-.003.746-.003 1.118-.005 4.965-.03 9.93-.042 14.895-.05Zm.173-52.556a9.171 9.171 0 0 0-.47-1.488 491.76 491.76 0 0 0-6.865.504 27.82 27.82 0 0 0-.013 1.976c.005.144.02.313-.015.459.635.945 1.292 1.87 1.945 2.8.788-.831 1.686-1.565 2.586-2.27a27.724 27.724 0 0 1 2.832-1.98Zm-2.678-1.86c-.062-.126-.062-.29-.074-.424a4.951 4.951 0 0 1-.018-.54c.003-.172-.007-.343-.01-.514-.002-.074-.002-.146-.002-.22-2.153.763-4.576.85-6.753.15a10.96 10.96 0 0 1-4.539-2.849c.248.489.477.987.692 1.476.224.503.434 1.011.63 1.525.107.283.206.565.308.848.067.189.161.377.176.573 1.537.124 3.075.245 4.615.36.013.002.023.007.035.01.012-.003.022-.008.035-.01a642.67 642.67 0 0 0 4.905-.385Zm-5.21 2.852c.012-.31.014-.622.012-.932 0-.35-.012-.697-.025-1.044a494.756 494.756 0 0 0-6.864-.504c-.201.481-.358.98-.472 1.488.987.595 1.93 1.27 2.832 1.982.9.704 1.798 1.438 2.587 2.269.652-.93 1.31-1.855 1.944-2.798-.034-.148-.02-.317-.014-.46Z"/>
    <path fill="#11009A" d="M110.361 97.952c.588 2.023.524 4.38-.712 6.16-1.212 1.749-3.305 2.597-5.371 2.741a9.609 9.609 0 0 1-.7.024c-1.026 0-2.041-.151-3.047-.354-1.21-.246-2.438-.506-3.599-.935a1.743 1.743 0 0 1-.094-.032c-1.153-.434-2.17-1.099-3.214-1.739a186.893 186.893 0 0 1-3.323-2.071.2.2 0 0 1-.053-.052l.224-.24c1.21.674 2.4 1.386 3.6 2.075 1.139.655 2.257 1.307 3.52 1.697a21.91 21.91 0 0 0 3.472.769c1.178.158 2.371.267 3.556.133 1.917-.218 3.829-1.155 4.749-2.919.967-1.847.744-4.054.032-5.947-.386-1.026-.927-1.991-1.51-2.918a32.662 32.662 0 0 0-2.048-2.914.352.352 0 0 1-.075-.266c-2.713 2.001-6.108 3.01-9.389 3.772l-.1-.352c1.975-.553 3.949-1.111 5.816-1.972 1.853-.855 3.582-1.969 4.975-3.47-.012-.024-.022-.051-.034-.076-.127-.278-.256-.55-.39-.823a36.792 36.792 0 0 0-3.301-5.449c-1.644-2.244-3.586-4.295-5.915-5.835a7.843 7.843 0 0 1-.257.783c-.246.643-.774 2.031-1.704 1.751-.98-.295-.714-1.763-.603-2.51a.208.208 0 0 0-.015.025c-.367.61-1.215 1.994-2.103 1.456-.414-.25-.493-.759-.429-1.198.015-.119.04-.238.065-.357-.437.63-1.091 1.344-1.771.932-.412-.25-.491-.76-.429-1.2a7.42 7.42 0 0 1 .431-1.557 9.2 9.2 0 0 1 .472-1.032l.352.12a8.817 8.817 0 0 0-.323.728c-.138.36-.257.73-.352 1.104-.091.37-.25.843-.106 1.215.37.947 1.388-.603 1.602-.95a6.788 6.788 0 0 0 .863-2.157c.077-.37.161-.814-.047-1.156-.162-.265-.628-.454-.76-.055a.174.174 0 0 1-.205.124l-.278-.144c.057-.076.117-.15.176-.225.151-.335.57-.504.925-.404.509.141.747.677.754 1.165.003.181-.017.362-.047.543.156-.235.322-.46.501-.682.151-.332.57-.503.925-.404.509.142.747.68.754 1.168l-.002.06a.796.796 0 0 1 .877-.546c.506.084.821.546.91 1.022.097.533.075 1.106-.02 1.671 1.432.88 2.724 1.992 3.882 3.207 1.83 1.92 3.37 4.114 4.672 6.418.595 1.054 1.163 2.133 1.625 3.254.044.107-.013.236-.085.315-.466.513-.969.972-1.503 1.396a.3.3 0 0 1 .149.107c1.652 2.088 3.284 4.422 4.035 7.006ZM97.128 76.063c.057-.456.114-.992-.01-1.443-.062-.23-.193-.471-.422-.573-.25-.111-.505.017-.545.29-.015.1-.094.137-.176.132a9.697 9.697 0 0 0-.702 2.56c-.06.478-.127 1.016-.047 1.495.034.195.119.429.31.523.228.114.439-.05.58-.22.303-.36.499-.859.657-1.296.171-.473.293-.967.355-1.468Zm-1.872-1.329c.079-.37.16-.81-.048-1.156-.16-.263-.627-.453-.758-.054a.175.175 0 0 1-.206.126 9.63 9.63 0 0 0-.995 1.875c-.139.36-.255.727-.35 1.101-.094.37-.252.846-.109 1.218.37.945 1.39-.603 1.602-.95.41-.665.705-1.396.864-2.16Z"/>
    <path fill="#F9968A" d="M107.891 94.343a32.676 32.676 0 0 0-2.048-2.914.352.352 0 0 1-.075-.265c-2.713 2.001-6.108 3.01-9.389 3.772 1.503.104 2.994.26 4.482.463 2.42-.183 4.838-.386 7.242-.713-.07-.115-.14-.229-.212-.343Z"/>
    <path fill="#FFC0B4" d="M109.37 103.21c-.922 1.764-2.834 2.701-4.751 2.919a9.698 9.698 0 0 1-.546.045c-1.002.054-2.011-.045-3.008-.179a21.805 21.805 0 0 1-3.472-.768c-1.262-.39-2.383-1.042-3.52-1.697-1.202-.689-2.39-1.401-3.6-2.076a.292.292 0 0 0-.072-.022c.216-.412.345-.878.072-1.178-.504-.553-1.218-.012-1.706.471.017-.059.037-.116.052-.178.052-.248.084-.504.089-.757 0-.091.002-.193-.007-.297a1.015 1.015 0 0 0-.122-.479c-.054-.097-.228-.09-.253.032-.042.226.01.472-.002.702-.015.233-.05.461-.112.687a3.786 3.786 0 0 1-.246.628 4.574 4.574 0 0 1-.185.312c-.03.05-.072.094-.102.141-.037.065-.037.122-.057.191-.045.149.126.268.253.196.067-.037.124-.052.173-.111.045-.05.08-.109.117-.166a4.8 4.8 0 0 0 .146-.261c.018-.005.04-.01.06-.022.36-.233.667-.568 1.039-.784.015-.01.032-.017.05-.027.14-.067.374-.134.46.037.033.065.008.166-.034.265-.04.11-.1.214-.126.273a3.286 3.286 0 0 1-1.469 1.54c-.654.338-1.398.407-2.115.243a3.492 3.492 0 0 1-1.01-.411c-.332-.201-.587-.472-.875-.729-.124-.11-.293.027-.226.173.308.645 1.04 1.106 1.687 1.344.109.042.22.075.337.104-.166.053-.322.127-.493.189a2.902 2.902 0 0 1-.712.159c-.44.039-.9-.03-1.297-.226a2.025 2.025 0 0 1-.91-.856c-.214-.391-.288-.828-.35-1.264.042-.34.062-.682.025-1.015-.023-.196-.323-.275-.37-.049-.119.543-.139 1.101-.235 1.649-.1.55-.231 1.094-.402 1.627-.07.213-.402 1.344-.682.712-.087-.189-.087-.402-.09-.606-.01-.297-.014-.597-.02-.897-.044-2.022.12-4.37 1.67-5.866 1.488-1.435 3.7-1.473 5.64-1.532a95.317 95.317 0 0 1 6.993.06c2.646.116 5.3.324 7.933.592.184.017.226-.29.043-.32a64.709 64.709 0 0 0-2.17-.33c2.42-.183 4.838-.387 7.241-.712.501.821.96 1.674 1.3 2.577.711 1.892.932 4.1-.033 5.947Z"/>
    <path fill="#F9968A" d="M104.073 106.174c-1.002.055-2.011-.045-3.008-.179a21.801 21.801 0 0 1-3.472-.768c-1.262-.39-2.383-1.042-3.52-1.697-1.202-.689-2.39-1.401-3.6-2.075a.261.261 0 0 0-.072-.023c.216-.411.345-.878.072-1.178-.504-.553-1.218-.012-1.706.471.017-.059.037-.116.052-.178.052-.248.084-.504.089-.757 0-.091.002-.193-.007-.297a49.695 49.695 0 0 1 7.824 3.331c2.373 1.262 4.779 2.755 7.348 3.35Z"/>
    <path fill="#60A5FA" d="M107.037 89.067a36.778 36.778 0 0 0-3.69-6.272c-1.647-2.244-3.587-4.295-5.918-5.835-.022.081-.044.163-.07.243a6.921 6.921 0 0 1-.188.54c-.243.642-.773 2.031-1.703 1.751-.98-.295-.712-1.763-.603-2.51l-.015.025c-.367.61-1.215 1.994-2.103 1.456-.412-.25-.491-.759-.427-1.198.015-.119.04-.238.065-.357-.437.63-1.094 1.344-1.77.932-.412-.25-.492-.76-.432-1.2a7.42 7.42 0 0 1 .431-1.557c.137-.352.293-.7.471-1.032-.01-.002-.024-.002-.034-.007a.779.779 0 0 1-.114-.048l-.134-.06a.837.837 0 0 0-.065-.029l-.03-.015a838.568 838.568 0 0 1-.407-.161c-.049-.022-.106-.042-.153-.064l-.005-.003h-.005c0-.002-.002-.002-.005-.002l-.005-.005a33.136 33.136 0 0 0-2.386 1.713c-.778.62-1.574 1.26-2.24 2.002-.135.154-.378.062-.433-.114-.402-1.208-.774-2.443-1.24-3.631v.407c.005.853-.017 1.917-.06 2.995-.089 2.16-.297 5.35-.808 8.276-.779 4.499-.823 9.526-.814 11.118 1.38-1.29 3.334-1.537 5.209-1.61.28-.01.558-.02.838-.027a86.17 86.17 0 0 1 6.304.05c-.583-2.11-.908-4.315-1.014-6.522l-.013-.296a1.322 1.322 0 0 1-.159-.184l-.079-.103c-.124-.166-.25-.325-.362-.496a5.405 5.405 0 0 1-.568-1.144c-.064-.168.22-.285.29-.121.164.372.367.724.605 1.054a3.5 3.5 0 0 0 .253.327 37.2 37.2 0 0 1 .025-2.34c.008-.177.273-.177.275 0 .008.93.04 1.857.107 2.782a.31.31 0 0 1 .05.23c0 .018-.013.035-.025.052.052.633.114 1.265.203 1.898.233 1.619.566 3.221.948 4.813a.336.336 0 0 1 .005.07c.064.005.133.005.2.01.013 0 .023 0 .038.002.005-.005.01-.007.02-.01l.982-.275c1.974-.553 3.948-1.111 5.818-1.972 1.165-.538 2.284-1.18 3.301-1.959a13.626 13.626 0 0 0 1.674-1.51c-.015-.025-.025-.052-.035-.077Zm-15.401 4.42c-.097.42-.476.45-.843.478-.563.044-1.129.072-1.69.097h-.006c-1.092.047-2.193.084-3.282.047-.126-.005-.21-.1-.22-.221-.179-2.294-.179-4.598-.209-6.897 0-.126.105-.21.219-.218.535-.037 1.071-.055 1.607-.077a7.484 7.484 0 0 0 .015-.732c-.008-.205-.035-.414-.03-.62 0-.062.03-.106.074-.128a.205.205 0 0 1 .179-.112c.409-.015.818-.008 1.23-.022.163-.005.392-.055.523.074.127.121.112.35.132.508.04.395.05.791.034 1.186.273-.057.54-.035.826-.025.34.012.672.015 1.012.007.141-.002.236.115.246.246.079 1.111.094 2.23.126 3.343.01.278.015.555.022.836.008.268.015.538.025.806.015.449.114.98.01 1.423Z"/>
    <path fill="#60A5FA" d="M107.072 89.144a13.634 13.634 0 0 1-1.674 1.51c-1.89-4.967-4.055-10.044-8.038-13.451.025-.08.047-.161.07-.243 2.33 1.54 4.27 3.59 5.917 5.835a36.773 36.773 0 0 1 3.69 6.272c.01.025.02.052.035.077Zm-12.574 5.694a86.17 86.17 0 0 0-6.304-.05 14.524 14.524 0 0 0 3.407-3.531 14.017 14.017 0 0 0 1.712-3.42c.02-.052.037-.107.054-.159l.055.29.062.348c.106 2.207.431 4.412 1.014 6.522Z"/>
    <path fill="#FFC0B4" d="M97.118 74.62c.124.451.067.987.01 1.444-.062.5-.184.994-.355 1.468-.158.436-.354.935-.657 1.294-.141.171-.352.335-.58.22-.191-.093-.276-.327-.31-.522-.08-.479-.013-1.017.047-1.496a9.696 9.696 0 0 1 .702-2.56c.082.006.161-.031.176-.13.04-.273.295-.402.545-.29.229.1.36.341.422.572Z"/>
    <path fill="#60A5FA" d="m96.932 105.588-.012.032H81.08l-.325-.749c.01.005.017.012.027.017.43.219.796-.146.958-.513.272-.618.45-1.295.592-1.952.008-.027.013-.054.018-.079.193.657.582 1.237 1.227 1.57.464.24.987.339 1.508.295.516-.042 1.218-.181 1.55-.608a.177.177 0 0 0 .04-.154c.498.07 1.012.035 1.493-.116a3.718 3.718 0 0 0 1.77-1.208c.087-.109.201-.26.31-.429.013.017.03.037.052.052 1.1.704 2.21 1.389 3.324 2.071 1.044.64 2.06 1.304 3.214 1.738.032.013.062.023.094.033Z"/>
    <path fill="#FFC0B4" d="M96.656 58.322c-.784-.907-2.044-1.011-3.113-.58-1.116.456-1.902 1.421-2.507 2.428-.104.169-.362.017-.263-.154.471-.823 1.071-1.612 1.835-2.172-.015 0-.03 0-.044-.003-.308-.062-.546-.372-.72-.612a3.962 3.962 0 0 1-.486-.945c-.273-.734-.322-1.523-.297-2.3.04-1.306.258-2.663.873-3.83-1.875.994-4.003 1.696-6.119 1.812-2.046.114-4.26.008-6.167-.79a7.796 7.796 0 0 1-2.723-1.916c-.174.524-.382 1.037-.556 1.563a31.724 31.724 0 0 0-.6 2.014 47.554 47.554 0 0 0-.942 4.322 37.877 37.877 0 0 0-.456 3.718c-.095 1.29-.11 2.611.198 3.876.277 1.168.843 2.22 1.74 3.028.814.732 1.83 1.213 2.877 1.505 2.337.653 4.975.549 7.309-.059 2.329-.605 4.511-1.94 5.697-4.075-.447 0-.893-.052-1.34-.173-.168-.047-.141-.34.045-.315 1.29.168 2.658-.057 3.782-.732a5.151 5.151 0 0 0 2.1-2.46c.387-.965.606-2.301-.123-3.15Zm-11.813-5.73a.32.32 0 0 1 .226-.227c.794-.186 1.696.124 2.331.598.61.451 1.017 1.16 1.215 1.88.05.176-.203.24-.267.074-.253-.699-.824-1.202-1.461-1.56a3.152 3.152 0 0 0-.995-.362 1.707 1.707 0 0 0-.573-.022c-.148.025-.272.047-.391-.067-.092-.087-.112-.193-.085-.315Zm1.945 5.45c0 .714-.365 1.295-.816 1.295-.457 0-.824-.58-.824-1.295 0-.714.367-1.294.824-1.294.451 0 .816.58.816 1.294Zm-4.913-.875c.272-.176.652-.201.992-.206.024-.196.064-.39.094-.583.062-.414.08-.83.062-1.247-.012-.375.578-.375.583 0 .01.436-.023.865-.087 1.297-.04.27-.097.54-.112.816-.01.153-.124.282-.287.282-.338.005-1.235-.074-1.121.489.015.087.07.151.136.206.144.116.315.213.469.32.159.106.312.215.471.322.129.092.28.174.352.325.04.084-.005.203-.114.198-.238-.01-.446-.196-.642-.315-.206-.126-.414-.25-.628-.374-.297-.174-.506-.377-.56-.732-.05-.31.136-.632.392-.798Zm-5.174-2.25c-.06.166-.312.102-.262-.074.198-.72.605-1.429 1.21-1.88.64-.474 1.542-.784 2.331-.598a.327.327 0 0 1 .228.226c.025.124.015.226-.084.315-.124.122-.258.084-.412.062a1.804 1.804 0 0 0-.575.032c-.342.067-.67.186-.972.358-.638.357-1.206.86-1.464 1.56Zm2.381 4.42c-.451 0-.818-.58-.818-1.295 0-.714.367-1.294.818-1.294.457 0 .821.58.821 1.294 0 .714-.364 1.295-.82 1.295Zm9.528.719c-.007.062-.543 6.235-4.98 6.235-1.145 0-2.063-.38-2.727-1.129-1.528-1.709-1.21-4.722-1.196-4.848l.02-.151.144-.055c.05-.017.109-.04 8.484-.32l.275-.007-.02.275Zm7.113-.543a9.834 9.834 0 0 0-1.106.588c-.35.213-.702.406-1.027.65-.02.014-.04.032-.054.044.119.178.233.36.337.543.144.25.243.528.317.806.038.154-.203.266-.267.112a6.08 6.08 0 0 0-.387-.72 2.412 2.412 0 0 0-.347-.456 5.022 5.022 0 0 0-.432.43c-.246.27-.434.582-.69.84-.138.144-.357-.005-.32-.186.087-.404.355-.734.633-1.032a5.85 5.85 0 0 1 .873-.771c.35-.25.73-.484 1.126-.657.402-.174.818-.318 1.23-.467.159-.059.268.204.114.276Z"/>
    <path fill="#11009A" d="M96.741 45.483a.269.269 0 0 1 .015.245c-.037.087-.097.127-.181.161-.1.04-.191-.002-.285-.027a1.942 1.942 0 0 0-.174-.037c-.002 0-.007-.003-.012-.003l-.018-.002a1.022 1.022 0 0 0-.094-.005c-.06-.005-.119-.005-.178-.005a1.27 1.27 0 0 0-.174.01l-.035.002c.01-.005.003-.002-.02 0-.03.005-.06.015-.091.02-.07.013-.114.005-.166.02-.06.017-.117.037-.177.057-.079.027-.163-.025-.193-.094-.037-.082.002-.156.067-.206.054-.042.114-.09.176-.117.027-.012.04-.027.077-.054a.464.464 0 0 1 .116-.057l.045-.015c.003-.003.015-.005.027-.008a.065.065 0 0 0 .018-.007.03.03 0 0 0 .015-.005 1.036 1.036 0 0 1 .268-.067c.148-.025.297-.03.448-.015.08.01.159.02.238.037.122.023.219.062.288.172Z"/>
    <path fill="#0E0094" d="M96.126 47.618c.665.836.687 2.014.585 3.025-.111 1.119-.37 2.23-.694 3.304a20.237 20.237 0 0 1-.556 1.594c-.195.491-.483.992-.62 1.506-.277.002-.56.04-.833.111a4.182 4.182 0 0 0-1.23.566.16.16 0 0 0 0-.097c-.084-.273-.322-.489-.474-.727a4.119 4.119 0 0 1-.424-.865c-.235-.694-.302-1.438-.29-2.17.025-1.364.151-2.812.878-4.003l.025-.015c.216-.124.025-.446-.194-.332-1.7.868-3.511 1.5-5.406 1.768-.908.13-1.825.132-2.74.11-.928-.025-1.858-.1-2.768-.29-1.746-.37-3.323-1.248-4.442-2.654-.952-1.193-1.701-2.991-1.173-4.517.122-.35.328-.701.648-.905.448-.287.952-.121 1.383.114.868.47 1.575 1.166 2.01 2.054.12.25.448.06.413-.174-.146-.917-.27-1.887-.005-2.795.214-.734.764-1.423 1.516-1.646.843-.248 1.627.305 2.222.85a6.685 6.685 0 0 1 1.498 2.014c.104.218.424.06.374-.159-.208-.945.52-1.823 1.369-2.14.995-.375 2.098.035 2.939.588 1.676 1.098 2.899 2.906 3.49 4.806-.102.094-.003.3.145.25a.189.189 0 0 0 .035-.01.186.186 0 0 0 .13-.034c.825-.186 1.666.218 2.189.873Z"/>
    <path fill="#fff" d="M96.176 106.364v.89c-1.459-.002-2.917-.007-4.378-.01-3.338-.002-6.676-.002-10.014-.002l-.38-.878h14.772Z"/>
    <path fill="#11009A" d="M95.59 44.138c.008.003.015.008.023.008h.027c.082-.003.146.062.159.139.012.079-.038.146-.11.173-.007.005-.012.013-.017.018a.258.258 0 0 1-.144.114l-.094.03c-.012.004-.025.01-.04.014-.002 0-.02.008-.03.01a.058.058 0 0 0-.012.008.35.35 0 0 0-.044.02c-.057.03-.112.062-.167.096-.02.013-.037.028-.054.04l-.027.02c-.01.01-.02.017-.033.027-.047.042-.099.082-.141.129l-.032.037a.201.201 0 0 0-.015.02l-.022.027-.023.035a.998.998 0 0 0-.096.166c-.005.013-.013.025-.018.038-.002.004-.005.007-.005.01l-.005.01-.032.093a.168.168 0 0 1-.203.115.165.165 0 0 1-.114-.201 1.765 1.765 0 0 1 .439-.816 1.681 1.681 0 0 1 .622-.402.213.213 0 0 1 .141-.005l.067.027Zm.02 15.098c.159-.059.268.204.114.276a10.03 10.03 0 0 0-1.108.587c-.347.214-.7.407-1.027.65-.02.015-.037.032-.055.045.12.178.236.36.34.543.142.25.243.528.315.806.04.154-.2.265-.268.112a5.72 5.72 0 0 0-.384-.72 2.529 2.529 0 0 0-.35-.456 5.427 5.427 0 0 0-.431.43c-.243.27-.432.582-.687.84-.142.144-.357-.005-.32-.186.084-.404.355-.734.63-1.032.263-.288.56-.543.875-.771a6.3 6.3 0 0 1 1.126-.657c.4-.174.819-.318 1.23-.467Z"/>
    <path fill="#FFC0B4" d="M95.208 73.578c.209.345.127.787.047 1.156a6.746 6.746 0 0 1-.862 2.16c-.214.347-1.233 1.895-1.603.95-.143-.372.015-.848.11-1.218a9.19 9.19 0 0 1 .35-1.1 9.62 9.62 0 0 1 .994-1.876.175.175 0 0 0 .206-.126c.131-.4.597-.209.758.054Zm-2.132-.622c.208.342.124.786.047 1.156a6.79 6.79 0 0 1-.863 2.157c-.214.347-1.233 1.897-1.602.95-.144-.372.014-.846.106-1.215a8.85 8.85 0 0 1 .675-1.833 10.1 10.1 0 0 1 .672-1.146.173.173 0 0 0 .206-.124c.131-.399.597-.21.759.055Z"/>
    <path fill="#11009A" d="M91.627 92.062c.015.449.112.98.01 1.423-.097.422-.476.452-.843.479a48.81 48.81 0 0 1-1.699.097c-1.088.047-2.19.084-3.278.047-.127-.005-.211-.1-.221-.22-.181-2.295-.179-4.599-.208-6.898-.003-.126.101-.21.218-.218.536-.037 1.071-.055 1.607-.077.002-.035.007-.072.007-.109.01-.208.01-.417.005-.623-.005-.205-.032-.414-.03-.62a.14.14 0 0 1 .077-.129.204.204 0 0 1 .179-.111c.41-.015.818-.007 1.228-.022.163-.005.394-.055.525.074.127.121.112.35.13.508.039.395.051.791.037 1.186.272-.057.54-.035.825-.025.338.013.672.015 1.01.008.141-.003.235.114.245.245.08 1.111.095 2.23.127 3.343.017.546.03 1.094.05 1.642Zm-.59 1.396c.236-.032.186-.223.176-.424-.09-1.905-.225-3.814-.248-5.721a19.81 19.81 0 0 0-.769-.018c-.292.003-.57.018-.848-.054-.02.265-.047.533-.087.798-.014.097-.124.154-.208.159-.419.027-.836.057-1.252.084-.176.013-.397.065-.546-.06-.124-.103-.144-.262-.131-.416.02-.24.044-.478.064-.72-.454.04-.905.078-1.359.108.01 2.157.134 4.31.201 6.467.94-.03 1.882-.042 2.822-.084.486-.02.972-.047 1.456-.077.24-.015.491-.01.73-.042Zm-2.175-5.682a8.89 8.89 0 0 0 .02-2.274h-.122c-.091.003-.186.003-.277.005-.31.008-.62.025-.933.03.057.28.062.583.065.858.005.352-.005.707-.03 1.059l-.017.27c0 .01 0 .082-.003.132l.129-.008.27-.015.898-.057Z"/>
    <path fill="#fff" d="M91.213 93.034c.01.2.06.392-.176.424-.238.032-.489.027-.729.042-.484.03-.97.057-1.456.077-.94.042-1.882.055-2.822.084-.067-2.157-.191-4.31-.2-6.467.453-.03.904-.067 1.358-.107-.02.24-.044.479-.064.72-.013.153.007.312.131.416.149.124.37.072.546.06.416-.028.833-.058 1.252-.085.084-.005.194-.062.208-.159.04-.265.067-.533.087-.798.278.072.556.057.848.054.258 0 .514.008.77.018.022 1.907.158 3.816.247 5.721Z"/>
    <path fill="#60A5FA" d="M89.289 91.467a1.851 1.851 0 0 0-1.716.05 1.85 1.85 0 0 0-.91 1.455l3.618-.105a1.852 1.852 0 0 0-.992-1.4Zm-1.359-.686c.112.11.267.186.422.162.18-.027.314-.18.403-.34.205-.368.248-.823.115-1.223a.821.821 0 0 0-.166-.302c-.21-.226-.652-.23-.87-.011-.254.256-.27.752-.205 1.077.046.234.131.47.301.637Z"/>
    <path fill="#3B82F6" d="M88.922 85.906a8.892 8.892 0 0 1-.06 1.87l-.898.057-.27.015-.129.008c.003-.05.003-.122.003-.132l.017-.27c.025-.352.035-.707.03-1.059a4.583 4.583 0 0 0-.065-.858c.313-.005.623-.022.933-.03.091-.002.186-.002.277-.005h.122c.015.13.037.377.04.404Z"/>
    <path fill="#60A5FA" d="M88.691 70.947c.27.806.652 1.562 1.037 2.319a27.633 27.633 0 0 0-2.27 1.664c-.696.565-1.339 1.185-2 1.785a23.348 23.348 0 0 0-.643-1.894c-.23-.605-.509-1.18-.781-1.763.783-.368 1.564-.737 2.353-1.092.761-.344 1.52-.726 2.304-1.019Z"/>
    <path fill="#11009A" d="m88.629 59.78-.02.275c-.005.062-.54 6.235-4.98 6.235-1.143 0-2.06-.38-2.728-1.129-1.527-1.709-1.207-4.722-1.193-4.848l.018-.152.144-.054c.05-.017.111-.04 8.484-.32l.275-.008Zm-1.371 3.377c.54-1.14.751-2.336.823-2.864-2.912.097-6.952.238-7.894.283-.042.667-.074 2.8.972 4.116.243-.543.727-.982 1.265-1.227.751-.342 1.595-.38 2.398-.22a.17.17 0 0 1 .075.031 3.342 3.342 0 0 1 2.36-.119Zm-.239.462c-1.418-.355-2.963.317-3.608 1.659-.067.141-.31.04-.253-.107.228-.6.613-1.138 1.121-1.528-.553-.032-1.111.015-1.624.231-.534.223-.96.6-1.255 1.086.558.55 1.307.834 2.23.834 1.668 0 2.725-1.005 3.39-2.175Zm1.598-8.777c.05.176-.206.24-.268.075-.256-.7-.824-1.203-1.461-1.56a3.189 3.189 0 0 0-.997-.362 1.692 1.692 0 0 0-.57-.023c-.15.025-.273.047-.392-.067-.094-.087-.112-.193-.085-.315a.32.32 0 0 1 .226-.225c.791-.186 1.697.124 2.331.597.608.452 1.015 1.16 1.216 1.88Z"/>
    <path fill="#0E0094" d="M88.08 60.293c-.071.528-.282 1.724-.822 2.864a3.342 3.342 0 0 0-2.361.12.169.169 0 0 0-.075-.033c-.803-.158-1.647-.121-2.398.22-.538.246-1.022.685-1.265 1.228-1.046-1.316-1.014-3.45-.972-4.116.942-.045 4.982-.186 7.894-.283Z"/>
    <path fill="#F9968A" d="M87.731 70.496c.023.087.035.21.077.305-.533.25-1.079.478-1.612.719-.779.35-1.562.69-2.346 1.03a.345.345 0 0 0-.077-.1c-.141-.134-.377-.161-.555-.208a21.005 21.005 0 0 0-2.076-.417 23.996 23.996 0 0 0-1.689-.2c.037-.142.05-.286.07-.432l.059-.477c.017-.158.04-.314.06-.473.012-.08.02-.159.034-.238 1.99.451 4.117.372 6.096-.003.57-.106 1.138-.255 1.694-.441.06.183.119.37.169.558.034.126.064.253.096.377Z"/>
    <path fill="#11009A" d="M85.97 56.747c.452 0 .819.58.819 1.294 0 .714-.367 1.295-.819 1.295-.453 0-.82-.58-.82-1.295 0-.714.367-1.294.82-1.294Z"/>
    <path fill="#F8FAFC" d="M83.411 65.278c.645-1.342 2.19-2.014 3.608-1.66-.664 1.171-1.72 2.176-3.39 2.176-.922 0-1.671-.283-2.23-.834a2.656 2.656 0 0 1 1.256-1.086c.513-.216 1.071-.263 1.624-.23a3.48 3.48 0 0 0-1.12 1.527c-.058.146.185.248.252.107Z"/>
    <path fill="#11009A" d="M83.607 55.13c.01.436-.022.865-.087 1.297-.04.27-.099.54-.114.816a.288.288 0 0 1-.285.282c-.34.005-1.235-.074-1.123.489a.358.358 0 0 0 .138.206c.144.116.315.213.47.32l.468.322c.131.092.282.174.354.325.04.084-.007.203-.114.198-.238-.01-.446-.195-.642-.314a49.406 49.406 0 0 0-.627-.375c-.298-.174-.506-.377-.563-.732-.047-.31.139-.632.394-.798.27-.176.65-.201.99-.206.027-.196.064-.39.094-.583.062-.414.08-.83.064-1.247-.012-.375.576-.375.583 0Z"/>
    <path fill="#60A5FA" d="M82.718 85.265c-.83 4.784-.83 10.163-.819 11.41-.099.11-.2.226-.292.35-1.444 1.907-1.448 4.449-1.312 6.729 0 .022.002.044.007.069l-5.401-12.452a2.4 2.4 0 0 0-2.197-1.443h-1.99c.13-.526.184-1.077.288-1.607.1-.496.209-.99.325-1.481.248-1.014.529-2.039.89-3.016.075-.198-.23-.272-.31-.087-.12.296-.24.593-.354.888a25.479 25.479 0 0 0-.742 2.133 20.12 20.12 0 0 0-.379 1.525c-.11.514-.24 1.044-.268 1.57 0 .025.003.05.01.075h-7.043c1.312-2.205 2.8-4.313 4.489-6.252 1.79-2.056 3.767-3.941 5.838-5.707 1.08-.92 2.187-1.81 3.303-2.683a.29.29 0 0 0 .09-.067c.004-.005.01-.013.017-.018.146.07.295.127.399.181 1.572.821 3.19 1.553 4.757 2.381.119.065.317.018.34-.139.146-.967.369-1.932.691-2.854.149-.43.328-.848.521-1.26.045 1.813-.07 7.222-.858 11.755Z"/>
    <path fill="#60A5FA" d="M71.553 84.625a25.54 25.54 0 0 0-.742 2.133 20.144 20.144 0 0 0-.379 1.525c-.11.514-.24 1.044-.268 1.57 0 .025.003.05.01.075h-5.158a171.9 171.9 0 0 1 6.537-5.303Zm11.759-11.85c.131.052.129.002.057.161-.04.084-.084.169-.124.253a16.292 16.292 0 0 0-.727 1.78c-.253.73-.431 1.476-.553 2.235-.838-.444-1.651-.927-2.485-1.379a94.162 94.162 0 0 0-1.4-.746c-.348-.184-.752-.342-1.095-.553.055-.087.15-.23.162-.256l.183-.312c.132-.226.268-.449.402-.675.268-.451.528-.907.774-1.371.758.136 1.53.21 2.294.337.414.07.828.142 1.237.226.412.087.883.146 1.275.3Z"/>
    <path fill="#F9F9FF" d="m74.218 91.665 6.755 15.574c-.466 0-.932 0-1.401-.002L72.388 90.67h.314c.66 0 1.253.392 1.516.995Z"/>
    <path fill="#11009A" d="M80.21 52.59c.024.124.012.226-.085.315-.126.122-.258.084-.412.062a1.8 1.8 0 0 0-.575.032c-.345.067-.67.186-.975.358-.635.357-1.202.86-1.46 1.56-.06.166-.315.101-.266-.075.201-.72.608-1.428 1.213-1.88.637-.473 1.54-.783 2.331-.597a.327.327 0 0 1 .228.225Zm-1.126 6.746c.453 0 .82-.58.82-1.295s-.367-1.294-.82-1.294c-.454 0-.821.58-.821 1.294 0 .715.367 1.295.82 1.295Z"/>
    <path fill="#fff" d="m71.576 90.67 7.185 16.567c-2.004-.003-4.01-.003-6.014-.01-7.532-.027-15.063-.037-22.595-.03l-6.843-15.775a.524.524 0 0 1 .045-.508.524.524 0 0 1 .447-.244h27.775Zm-9.962 12.381c1.793 0 2.686-1.454 1.997-3.247-.69-1.793-2.703-3.246-4.496-3.246-1.791 0-2.686 1.453-1.997 3.246.692 1.793 2.703 3.247 4.496 3.247Z"/>
    <path fill="#0E0094" d="M76.492 49.284c-.476.987-.786 2.088-1.099 3.123a40.486 40.486 0 0 0-.982 4.042c-.025.131-.047.26-.07.392a19.2 19.2 0 0 1-.205-1.873c-.052-.86-.117-1.728-.04-2.591.124-1.394.89-2.93 2.396-3.093Z"/>
    <path fill="#F9968A" d="M73.56 71.617c-.473-.608-.96-1.206-1.443-1.803-.243-.3-.481-.603-.722-.903-.121-.151-.26-.305-.386-.466-1.734 2.09-3.656 4.042-5.759 5.75.171.162.313.368.459.537.228.263.451.53.674.798.358.431.712.865 1.065 1.3 2.58-.99 5.104-2.126 7.594-3.354-.497-.617-.993-1.235-1.481-1.86Z"/>
    <path fill="#FFC0B4" d="m67.448 76.829.223.27c.441.541.882 1.082 1.319 1.625l.655.819c.143.18.337.372.441.59 1.927-1.865 3.995-3.589 6.118-5.22-.387-.48-.775-.958-1.161-1.438-2.49 1.229-5.015 2.364-7.595 3.354Z"/>
    <path fill="#F9968A" d="M74.178 57.793c-.136.85-.25 1.706-.327 2.565a22.37 22.37 0 0 0-.09 1.371c-.257-.06-.543-.372-.699-.533a3.567 3.567 0 0 1-.558-.76 3.797 3.797 0 0 1-.471-1.869c.002-.617.136-1.528.739-1.85.774-.412 1.116.5 1.406 1.076Z"/>
    <path fill="#F8FAFC" d="M71.358 64.514c.427.312.841.642 1.245.985-.568.798-1.16 1.58-1.78 2.336a.153.153 0 0 0-.065.082 42.676 42.676 0 0 1-2.234 2.502c-1.476 1.523-3.068 2.901-4.72 4.223-.759-.647-1.282-1.446-1.73-2.321 1.812-1.538 3.533-3.2 5.272-4.819.873-.81 1.743-1.622 2.616-2.435.24-.223.479-.449.72-.672.1-.094.15-.196.312-.139.124.045.258.181.364.258Z"/>
    <path fill="#3B82F6" d="m69.38 64.825-.595.55c-.173.162-.347.323-.52.487a726.534 726.534 0 0 0-4.028 3.757c-.799.751-1.61 1.495-2.383 2.274-.003-.012-.013-.022-.018-.03a99.864 99.864 0 0 0-.759-4.178c-.372-1.794-.813-3.577-1.373-5.323-.06-.176-.333-.104-.283.077 1.8 6.282 2.118 12.854 3.566 19.21a45.2 45.2 0 0 0 .68 2.627c.128.451.262.905.416 1.351.124.35.243.715.404 1.052a25.112 25.112 0 0 0-1.867 3.249H49.828l-.01-.055-1.145-5.03 9.895-3.744-.09-.328c-1.72-6.323-6.993-20.678-7.043-20.822l-.104-.277-.293.037c-2.385.29-5.118 1.128-7.623 2.073l-1.081-4.75c.486.795 1.036 1.556 1.532 2.34a.235.235 0 0 0 .362.047c.903-.824 1.776-1.67 2.753-2.408.957-.73 1.97-1.37 3.01-1.977.12-.07.16-.203.135-.332a.103.103 0 0 0-.01-.038c1.488-.136 2.986-.272 4.479-.163.424.032.84.09 1.25.171 1.034.203 2.023.568 2.96 1.084 2.516 1.386 4.566 3.534 6.647 5.483.687.645 1.379 1.287 2.07 1.927.613.563 1.209 1.146 1.858 1.66Z"/>
    <path fill="#93C5FD" d="M69.38 64.825c-.2.183-.396.367-.595.55-.173.162-.347.323-.52.487-2.48-2.766-5.199-5.31-7.912-7.85-.833-.783-1.674-1.567-2.606-2.23a12.64 12.64 0 0 0-1.902-1.11c1.034.203 2.023.568 2.96 1.084 2.516 1.386 4.566 3.534 6.647 5.483.687.645 1.379 1.287 2.071 1.927.612.563 1.208 1.146 1.858 1.659Z"/>
    <path fill="#60A5FA" d="M63.61 99.804c.69 1.793-.203 3.247-1.996 3.247s-3.804-1.454-4.496-3.247c-.69-1.793.206-3.246 1.996-3.246 1.794 0 3.807 1.453 4.497 3.246Z"/>
    <path fill="#11009A" d="m58.48 80.77.089.328-9.898 3.745 1.146 5.029-.243.055-1.138-4.995-4.283 1.622-3.113-5.756c-.898.9-1.818 1.775-2.758 2.633-1.778 1.627-3.61 3.197-5.567 4.606-.637.456-1.292.902-1.962 1.324.003.072.003.146.005.218l-.367.008c-1.245.761-2.55 1.43-3.918 1.917-1.905.674-3.988 1.098-5.975.516-2.405-.71-4.188-2.904-5.113-5.151-1.074-2.61-.863-5.55-.181-8.237.622-2.46 1.691-4.803 2.96-6.993.596-1.027 1.23-2.041 1.957-2.978a.223.223 0 0 1 .122-.085c-.37-.32-.73-.652-1.074-.997a.277.277 0 0 1-.042-.325 7.62 7.62 0 0 1 1.267-1.763.256.256 0 0 1 .305-.04c.303.167.6.338.896.511l.295.176c.21.132.424.263.632.4.072-.142.186-.278.26-.392.154-.23.32-.452.482-.675.136-.188.268-.436.448-.585.209-.171.452-.075.678.002l.739.246c.183.062.466.102.575.283.136.225-.067.473-.174.667-.124.218-.245.436-.37.657l-.379.684c-.089.167-.168.387-.32.509l1.151.875a87.86 87.86 0 0 0 2.393 1.769c.405.285.814.563 1.228.833.337.22.69.421 1.004.672l.189-.717c.516-1.966 1.081-3.918 1.6-5.885.054-.208.369-.119.32.087-.477 1.979-.893 3.973-1.347 5.957-.404 1.763-.799 3.539-1.265 5.29 2.797-1.06 5.644-2 8.539-2.758l-3.046-8.566.283-.151a74.98 74.98 0 0 1 7.673-3.467l-1.089-4.787.24-.054 1.082 4.749c2.502-.945 5.235-1.783 7.624-2.073l.292-.038.102.278c.052.144 5.322 14.498 7.046 20.822Zm-13.983 4.86 13.174-4.988c-1.659-5.94-6.103-18.156-6.835-20.157-5.567.776-13.141 4.566-14.694 5.364L39 73.878c.12-.037.23-.084.333-.158l.394-.283c.704-.496 1.265-1.109 1.773-1.8 1.064-1.456 2.07-2.957 3.112-4.43.1-.139.246-.173.4-.104.885.407.585 1.496.372 2.215-.219.721-.471 1.43-.767 2.125.457-.367.925-.722 1.419-1.049a37.712 37.712 0 0 1 2.292-1.381c.47-.266.94-.556 1.425-.791.422-.206.878-.134 1.047.344.159.45-.11.826-.414 1.131l-.305.308c.307-.224.625-.452.96-.59.334-.142.714-.013.858.332.183.439-.179.778-.444 1.079-.328.369-.685.711-1.057 1.031-.04.035-.081.067-.124.102.405-.134.824-.275 1.238-.345a.88.88 0 0 1 .932.469c.471.915-.865 1.624-1.475 2.021a68.893 68.893 0 0 1-5.459 3.22c-.478.252-.96.5-1.44.746-.271.139-.541.282-.817.414l-.067.037c-.032.047-.116.121-.133.141-.298.34-.6.675-.91 1.005-.184.193-.373.382-.556.573l2.911 5.389ZM51.26 73.1c.14-.103.916-.624.484-.813-.171-.077-.474.08-.647.13-.214.059-.424.12-.635.185-.848.263-1.65.623-2.438 1.024-.377.191-.677-.33-.33-.563.67-.453 1.34-.907 1.972-1.413.302-.243.595-.499.875-.767a8.3 8.3 0 0 0 .404-.414c.097-.106.335-.295.37-.434.047-.18-.22.02-.303.07-.198.119-.394.248-.587.372l-1.134.722c-.528.334-1.059.667-1.594.997-.209.168-.422.334-.638.5-.3.229-.597-.282-.297-.508.761-.57 1.48-1.188 2.162-1.852.313-.306.623-.616.925-.93.117-.122.387-.333.387-.521 0-.216-.265.002-.367.06-.731.41-1.458.825-2.182 1.244a119.017 119.017 0 0 0-4.115 2.48c-.134.087-.292-.116-.17-.22.148-.127.297-.251.448-.375a.265.265 0 0 1 .005-.208c.315-.74.6-1.49.838-2.26.137-.431.56-1.376.231-1.825-1.099 1.567-2.17 3.174-3.36 4.672A8.75 8.75 0 0 1 40 73.978c-.149.114-.292.24-.446.347-.28.193-.717.253-1.044.35a152.912 152.912 0 0 0-5.092 1.597c-3.4 1.14-6.745 2.437-10.024 3.893-.374.166-.702-.38-.325-.553a102.14 102.14 0 0 1 5.471-2.338c.161-.063.325-.124.486-.186.169-.824.36-1.642.56-2.46-.927-.224-1.745-.802-2.544-1.295a109.515 109.515 0 0 1-2.748-1.749c-1.29-.853-2.574-1.755-3.764-2.76a.26.26 0 0 1-.055.191 30.905 30.905 0 0 0-2.567 4.12c-1.183 2.256-2.13 4.68-2.534 7.206-.422 2.639-.035 5.513 1.401 7.8 1.146 1.825 2.84 3.28 5.032 3.551 2.016.248 4.025-.37 5.838-1.203 2.138-.982 4.114-2.299 5.977-3.727 1.778-1.364 3.506-2.842 5.074-4.444a134.805 134.805 0 0 0 3.28-3.46c.234-.255.457-.52.693-.773.173-.189.429-.273.657-.387.91-.462 1.818-.933 2.713-1.421a66.998 66.998 0 0 0 2.59-1.489c.884-.535 1.795-1.07 2.63-1.688Zm-21.578 1.136c.131-.52.265-1.039.4-1.557-.432-.159-.812-.42-1.196-.67a40.78 40.78 0 0 1-1.228-.835 87.577 87.577 0 0 1-2.393-1.769 281.28 281.28 0 0 0-2.378-1.79c-.457-.34-.913-.704-1.382-1.044a.167.167 0 0 1-.126-.092 9.768 9.768 0 0 0-.754-.488c-.365.406-.67.855-.925 1.336a47.54 47.54 0 0 0 4.878 3.772c.885.598 1.783 1.173 2.686 1.744.766.483 1.545 1.106 2.418 1.394Zm-4.424-8.568c-.023-.007-.043-.017-.062-.022a7.515 7.515 0 0 0-.219-.072c-.146-.047-.292-.097-.439-.144-.143-.047-.29-.097-.436-.144-.065-.02-.077-.042-.122-.007-.052.04-.091.121-.129.17-.188.256-.377.51-.565.762a9.85 9.85 0 0 1-.283.357c-.05.06-.096.12-.146.176-.003.005-.008.008-.012.013.129.09.26.176.386.268.303.218.603.441.9.664.04-.156.152-.302.231-.441l.313-.556c.109-.193.215-.389.322-.582l.156-.28c.023-.04.07-.102.105-.162Z"/>
    <path fill="#F9968A" d="M54.722 40.964c.04.878-.099 1.753-.555 2.512a3.893 3.893 0 0 1-1.518 1.436c.181-.947.196-1.932.132-2.887-.092-1.391-.286-2.78-.491-4.159l-.06-.39.074-.195c1.578.283 2.354 2.225 2.418 3.683Z"/>
    <path fill="#0E0094" d="M53.418 21.702c.223.716.206 1.443.02 2.167-.645 2.53-3.058 4.705-5.744 4.645-.28-.007-.295.37-.062.462.44.17.88.337 1.32.505-1.935.645-4.048-.067-5.97-.486-2.029-.444-4.13-.652-6.193-.322-1.158.186-2.284.543-3.305 1.123-.15.085-.105.253.01.32.116.796.357 1.578.466 2.379.121.895.149 1.803.116 2.703-.03.905-.119 1.808-.22 2.706-.09.796-.243 1.582-.345 2.375-.501-.48-1.079-.883-1.734-1.086a.152.152 0 0 0-.012-.044c-.962-1.697-1.937-3.416-2.49-5.3-.449-1.53-.848-3.978.734-5.045a2.147 2.147 0 0 1 1.206-.364c.44.002.778.171 1.125.431.112.085.263-.03.27-.153.003 0 .003-.003.003-.005.07-.05.12-.132.102-.236-.412-2.619.56-5.317 2.485-7.12 1.984-1.858 4.491-3.373 7.12-4.085 2.405-.652 5.062-.577 7.328.526 1.06.514 2.024 1.238 2.775 2.148.43.518.794 1.108.995 1.756Z"/>
    <path fill="#0E0094" d="M52.8 29.075c.519.81.57 1.78.462 2.713-.122 1.027-.395 2.056-.653 3.055-.129.504-.255 1.01-.396 1.51a9.395 9.395 0 0 1-.105.35c-.45-2.785-1.051-5.565-1.9-8.253a6.55 6.55 0 0 0 .909-.491c.129.044.262.06.399.099.166.047.322.122.471.21.33.197.605.482.813.807Z"/>
    <path fill="#FFC0B4" d="M52.174 42.651a26.25 26.25 0 0 0-.163-2.078 79.551 79.551 0 0 0-.556-4.062c-.441-2.654-1.061-5.26-1.79-7.847-.303.102-.61.181-.928.233.307.12.62.238.932.352.179.065.253.338.055.44-1.032.532-2.222.679-3.373.577-1.116-.097-2.212-.392-3.293-.667a17.595 17.595 0 0 0-3.152-.518c-2.051-.142-4.115.146-6.01.954.402.707.554 1.598.655 2.381.114.903.134 1.818.095 2.728-.04.908-.134 1.816-.283 2.716-.154.925-.283 1.867-.506 2.78.188.208.367.426.53.647.1.132-.123.298-.227.174-.814-.965-1.86-1.92-3.185-2.006-1.185-.08-2.202.543-2.505 1.718-.332 1.27.028 2.584.695 3.678.63 1.04 1.646 1.758 2.862 1.927a3.7 3.7 0 0 0 1.701-.174c.278-.091.536-.22.784-.37.243-.145.506-.235.744-.389.148-.094.362.102.248.248-.243.32-.437.58-.794.782-.035.02-.07.037-.104.054a.14.14 0 0 1 .129.052 10.647 10.647 0 0 0 6.294 3.896c2.331.474 4.816.107 6.914-1.016 2.118-1.136 3.815-2.969 4.152-5.42.08-.592.1-1.192.08-1.79ZM34.07 44.226c-.357-.04-.664-.305-.967-.483a18.342 18.342 0 0 0-.684-.373c-.025.045-.055.09-.08.134-.06.102-.121.204-.183.305-.065.11-.14.211-.209.318-.064.106-.139.213-.208.317-.05.067-.134.1-.213.055-.075-.047-.085-.134-.055-.21.055-.117.104-.232.159-.348.055-.114.104-.233.164-.345.052-.104.109-.21.163-.315l.06-.111a20.18 20.18 0 0 0-.863-.415 13.171 13.171 0 0 0-.521-.23c-.164-.072-.347-.114-.432-.288-.069-.151-.01-.297.144-.357.204-.072.407.057.585.136.164.072.328.144.492.221.332.159.66.33.977.511.332.186.654.387.977.59.282.184.66.357.823.662.05.092-.01.24-.129.226Zm4.539-7.517c.203-.719.61-1.428 1.215-1.88.635-.473 1.537-.786 2.331-.597a.327.327 0 0 1 .228.225c.025.124.01.224-.084.315-.13.12-.258.085-.412.062a1.792 1.792 0 0 0-.575.032 3.13 3.13 0 0 0-.977.358c-.635.357-1.2.86-1.459 1.56-.06.163-.317.099-.267-.075Zm3.467 3.2c0 .714-.367 1.294-.819 1.294-.456 0-.823-.58-.823-1.295 0-.714.367-1.294.823-1.294.452 0 .819.58.819 1.294Zm-1.95 7.529c-3.59-1.082-2.043-4.68-2.043-4.68l6.478 1.32s-1.642 4.203-4.435 3.36Zm6.796-6.024a71.01 71.01 0 0 0-1.31.761c-.223.134-.446.268-.665.407-.188.116-.367.263-.585.305-.109.02-.223-.092-.154-.196.134-.196.348-.315.541-.444.203-.139.407-.273.605-.41.283-.185.57-.366.853-.55a4.33 4.33 0 0 0-.555-.148 6.427 6.427 0 0 0-1.136-.107.288.288 0 0 1-.283-.285c-.01-1.074.01-2.153.05-3.227.01-.374.6-.374.58 0a65.11 65.11 0 0 0-.06 2.954c.318.02.636.062.948.129.392.084.818.18 1.17.384.16.094.164.337 0 .427Zm1.22-.211c-.452 0-.819-.58-.819-1.295 0-.714.367-1.294.819-1.294.451 0 .818.58.818 1.294 0 .715-.367 1.295-.818 1.295Zm.917-5.98a3.188 3.188 0 0 0-.997-.361 1.757 1.757 0 0 0-.57-.025c-.149.025-.273.05-.394-.065-.092-.087-.107-.193-.082-.315a.327.327 0 0 1 .228-.225c.789-.186 1.696.121 2.331.597.605.452 1.012 1.158 1.215 1.88.05.176-.208.238-.267.075-.258-.7-.824-1.206-1.464-1.56Z"/>
    <path fill="#F9968A" d="M29.392 75.45c.064-.274.128-.549.196-.822-.928-.224-1.746-.801-2.545-1.295a109.23 109.23 0 0 1-2.748-1.748c-1.29-.853-2.574-1.756-3.764-2.76a.26.26 0 0 1-.055.19l-.107.144a30.897 30.897 0 0 0-2.83 4.707c3.828 1.167 7.829 1.62 11.853 1.584Z"/>
    <path fill="#FFC0B4" d="M51.744 72.286c-.171-.077-.474.08-.647.13-.214.059-.424.12-.635.185-.848.263-1.65.623-2.438 1.024-.377.191-.677-.33-.33-.563.67-.453 1.34-.907 1.972-1.413.302-.243.595-.499.875-.767a8.3 8.3 0 0 0 .404-.414c.097-.106.335-.295.37-.434.047-.18-.22.02-.303.07-.198.119-.394.248-.587.372l-1.134.722c-.528.334-1.059.667-1.594.996-.209.17-.422.335-.638.501-.3.229-.597-.282-.297-.508a21.95 21.95 0 0 0 2.162-1.853c.313-.305.623-.615.925-.93.117-.121.387-.332.387-.52 0-.216-.265.002-.367.06-.731.41-1.458.825-2.182 1.244a119.017 119.017 0 0 0-4.115 2.48c-.134.087-.292-.116-.17-.22.148-.127.297-.251.448-.375a.265.265 0 0 1 .005-.208c.315-.74.6-1.49.838-2.26.137-.431.56-1.376.231-1.825-1.099 1.567-2.17 3.174-3.36 4.672A8.75 8.75 0 0 1 40 73.978c-.149.114-.292.24-.446.347-.28.193-.717.253-1.044.35a153.149 153.149 0 0 0-5.092 1.597c-3.4 1.14-6.745 2.437-10.024 3.893-.374.166-.702-.38-.325-.553a102.06 102.06 0 0 1 5.471-2.338c.161-.063.325-.124.486-.186a57.77 57.77 0 0 1 .365-1.639c-4.024.036-8.025-.416-11.852-1.584-1.009 2.047-1.804 4.22-2.165 6.476-.422 2.639-.035 5.513 1.401 7.8 1.146 1.825 2.84 3.28 5.032 3.551 2.016.248 4.025-.37 5.838-1.203 2.138-.982 4.114-2.299 5.977-3.727 1.778-1.364 3.506-2.842 5.074-4.444a134.805 134.805 0 0 0 3.28-3.46c.234-.255.457-.52.693-.774.173-.188.429-.272.657-.386.91-.462 1.818-.933 2.713-1.421a66.998 66.998 0 0 0 2.59-1.489c.884-.535 1.795-1.07 2.63-1.688.14-.104.916-.625.484-.814Z"/>
    <path fill="#11009A" d="M50.79 36.708c.049.176-.207.238-.269.075-.255-.7-.823-1.206-1.46-1.56a3.188 3.188 0 0 0-.997-.362 1.76 1.76 0 0 0-.57-.025c-.15.025-.274.05-.395-.065-.092-.086-.11-.193-.082-.315a.32.32 0 0 1 .226-.225c.79-.186 1.696.121 2.331.597.608.452 1.014 1.159 1.215 1.88Z"/>
    <path fill="#3B82F6" d="m48.436 84.932 1.138 4.995h-5.773a1.279 1.279 0 0 0-1.174 1.79l1.957 4.511c-.394.018-.788.092-1.19.137-.593.067-1.186.124-1.78.163a44.235 44.235 0 0 1-3.582.102 44.074 44.074 0 0 1-3.574-.198 40.198 40.198 0 0 1-1.815-.209c-.55-.08-1.121-.144-1.664-.278-.025-1.066-.114-2.135-.156-3.201-.04-1.057-.045-2.108-.065-3.165-.002-.072-.002-.146-.005-.218.67-.422 1.325-.868 1.962-1.324 1.957-1.409 3.79-2.979 5.567-4.606a81.45 81.45 0 0 0 2.758-2.633l3.113 5.756 4.283-1.622Z"/>
    <path fill="#93C5FD" d="M49.342 107.198a2624.846 2624.846 0 0 0-14.895.05c-.372.002-.749.002-1.12.005a.208.208 0 0 0-.02-.05c-.888-1.632-1.439-3.487-1.642-5.332-.1-.905-.124-1.82-.067-2.728.032-.466.082-.927.151-1.389.04-.243.07-.488.114-.729.025-.114.055-.218.06-.32.223.045.45.087.674.122.58.09 1.16.171 1.741.238a35.34 35.34 0 0 0 3.695.228 38.436 38.436 0 0 0 5.481-.31c.441-.057.883-.092 1.3-.22l.51 1.177 4.018 9.258Z"/>
    <path fill="#60A5FA" d="M38.058 99.19c.05 2.718.479 5.429 1.26 8.033-1.624.007-3.249.015-4.87.025-.373.002-.75.002-1.122.005a.208.208 0 0 0-.02-.05c-.887-1.632-1.438-3.487-1.641-5.332-.1-.905-.124-1.82-.067-2.728.032-.466.082-.927.151-1.389.04-.243.07-.488.114-.729.025-.114.055-.218.06-.32.223.045.45.087.674.122.58.09 1.16.171 1.741.238a35.34 35.34 0 0 0 3.695.228 38.436 38.436 0 0 0 5.481-.31c.441-.057.883-.092 1.3-.22l.51 1.177-7.266 1.25Z"/>
    <path fill="#F8FAFC" d="M49.043 53.153c.201.481.355.98.471 1.488a27.682 27.682 0 0 0-2.832 1.982c-.9.704-1.798 1.438-2.586 2.269-.653-.93-1.31-1.855-1.945-2.8.035-.146.02-.315.015-.459a27.82 27.82 0 0 1 .013-1.976 491.76 491.76 0 0 1 6.864-.504Z"/>
    <path fill="#11009A" d="M48.143 38.613c.451 0 .818.58.818 1.294 0 .715-.367 1.295-.818 1.295-.454 0-.82-.58-.82-1.295 0-.714.366-1.294.82-1.294Zm-1.22 2.373c.159.094.161.338 0 .427-.44.248-.876.5-1.31.761-.223.134-.446.268-.667.407-.186.116-.367.263-.585.305-.107.02-.22-.092-.151-.196.131-.196.347-.315.54-.444.201-.139.405-.273.605-.41.283-.185.568-.366.854-.55a4.56 4.56 0 0 0-.556-.148 6.477 6.477 0 0 0-1.138-.107.288.288 0 0 1-.283-.285 73.87 73.87 0 0 1 .05-3.227c.012-.374.6-.374.582 0a66.19 66.19 0 0 0-.062 2.954c.32.02.635.062.948.129.394.084.82.18 1.173.384Z"/>
    <path fill="#F9968A" d="M46.762 52.357c.012.134.012.298.074.424a642.67 642.67 0 0 1-4.905.385c-.013.002-.023.007-.035.01-.013-.003-.023-.008-.035-.01a710.3 710.3 0 0 1-4.615-.36c-.015-.196-.11-.384-.176-.573-.102-.283-.201-.565-.308-.848a31.333 31.333 0 0 0-.63-1.525 30.42 30.42 0 0 0-.692-1.476 10.96 10.96 0 0 0 4.539 2.85c2.177.699 4.6.612 6.753-.152 0 .075 0 .147.002.221.003.171.013.342.01.513-.002.179 0 .36.018.541Z"/>
    <path fill="#fff" stroke="#11009A" stroke-miterlimit="10" stroke-width="2" d="m38.084 42.757 6.475 1.32s-1.641 4.203-4.434 3.36c-3.588-1.082-2.04-4.68-2.04-4.68Z"/>
    <path fill="#3B82F6" d="m42.094 57.086 1.089 4.787a74.98 74.98 0 0 0-7.673 3.467l-.283.151 3.046 8.566c-2.895.759-5.742 1.699-8.54 2.758.467-1.751.861-3.527 1.266-5.29.454-1.984.87-3.978 1.346-5.957.05-.206-.265-.295-.32-.087-.518 1.967-1.083 3.919-1.6 5.885-.061.238-.126.479-.188.717-.315-.25-.667-.451-1.004-.672-.414-.27-.823-.548-1.228-.834a87.372 87.372 0 0 1-2.393-1.768l-1.15-.875c.15-.122.23-.343.32-.509l.379-.684c.124-.22.245-.44.37-.657.106-.194.31-.442.173-.667-.11-.181-.392-.221-.575-.283l-.74-.246c-.225-.077-.468-.173-.677-.002-.18.149-.312.397-.448.585-.162.223-.328.444-.482.675-.074.114-.188.25-.26.391-.208-.136-.421-.267-.632-.399a96.232 96.232 0 0 1 3.864-5.51c1.334-1.773 2.802-3.51 4.778-4.588 1.045-.568 2.2-.913 3.39-.935.998.588 1.967 1.205 2.89 1.904.974.74 1.848 1.585 2.75 2.408.112.102.28.082.365-.047.652-1.029 1.391-2.02 1.969-3.097.005.012.012.022.02.034l.178.78Z"/>
    <path fill="#11009A" d="M42.382 34.456c.025.124.012.224-.084.315-.127.12-.258.085-.412.062a1.795 1.795 0 0 0-.575.033c-.345.064-.67.183-.975.357-.635.357-1.203.86-1.46 1.56-.06.163-.316.099-.266-.075.2-.719.608-1.428 1.213-1.88.637-.473 1.54-.786 2.33-.597a.327.327 0 0 1 .229.225Zm-1.126 6.746c.453 0 .82-.58.82-1.295s-.367-1.294-.82-1.294c-.453 0-.82.58-.82 1.294 0 .715.367 1.295.82 1.295Z"/>
    <path fill="#F8FAFC" d="M41.638 54.7c.002.31 0 .623-.012.933-.005.144-.02.313.014.461-.634.943-1.292 1.868-1.944 2.798-.788-.831-1.686-1.565-2.587-2.27a27.699 27.699 0 0 0-2.832-1.98c.114-.51.27-1.008.471-1.489 2.29.149 4.576.322 6.865.504.013.347.025.694.025 1.044Z"/>
    <path fill="#11009A" d="M34.2 44c.048.091-.01.24-.131.225-.357-.04-.662-.305-.967-.483a15.134 15.134 0 0 0-.685-.372l-.077.133c-.062.102-.121.204-.183.305-.065.11-.139.211-.208.318a8.947 8.947 0 0 1-.211.317c-.047.067-.134.1-.211.055-.077-.047-.087-.134-.055-.21.052-.117.105-.232.16-.348.054-.114.1-.233.16-.345l.166-.315c.018-.037.038-.074.058-.111a21.144 21.144 0 0 0-1.382-.645c-.163-.072-.35-.114-.431-.288-.07-.151-.01-.297.143-.357.201-.072.405.057.586.136a15.93 15.93 0 0 1 1.468.732c.332.186.655.387.975.59.285.184.662.357.825.662Zm-3.63-17.276c.015 0 .057.01.062.01.022.005.042.007.062.012a2.628 2.628 0 0 1 .65.273c.133.087.257.19.366.307.14.15-.069.348-.22.221a1.302 1.302 0 0 0-.337-.203 1.182 1.182 0 0 0-.338-.092 1.373 1.373 0 0 0-.2 0c-.01 0-.077.003-.073 0l-.134.017c-.014.003-.03.003-.047.005h-.002a2.52 2.52 0 0 0-.295.084c-.166.063-.34-.066-.387-.218a.316.316 0 0 1 .218-.387 1.79 1.79 0 0 1 .526-.052c.05.005.102.013.149.023Zm.9-.268c.002.017.002.035.002.054a.134.134 0 0 1-.005.035v.005c-.002.005-.002.01-.002.012 0 .003 0 .008-.003.01-.005.077-.054.142-.133.152a.153.153 0 0 1-.172-.112l-.002-.01-.015-.035-.015-.047a4.337 4.337 0 0 0-.037-.111.576.576 0 0 0-.07-.124c-.002-.008-.007-.015-.012-.023l-.02-.022c-.022-.025-.047-.047-.07-.07-.039-.042-.083-.076-.126-.111a1.813 1.813 0 0 0-.05-.035.272.272 0 0 1-.145-.233v-.007c-.003-.12.079-.209.186-.246.002-.002.005-.002.007-.002.107-.04.226.022.288.109l-.023-.032c.075.064.14.136.196.215.01.018.023.035.033.052.014.02.022.043.032.065l.02.04.04.091a1.245 1.245 0 0 1 .096.38Z"/>
    <path fill="#F8FAFC" d="M30.081 72.678a274.46 274.46 0 0 0-.4 1.558c-.872-.288-1.65-.91-2.417-1.394-.903-.57-1.8-1.146-2.686-1.744a47.54 47.54 0 0 1-4.878-3.772c.255-.48.56-.93.925-1.336.258.148.508.315.754.488.025.05.072.084.126.092.469.34.925.704 1.382 1.044.796.593 1.59 1.19 2.378 1.79a87.86 87.86 0 0 0 2.393 1.769c.404.285.814.565 1.228.835.384.25.764.511 1.195.67Z"/>
    <path fill="#3B82F6" d="M25.196 65.645c.02.005.04.015.062.022-.035.06-.082.122-.105.162l-.156.28c-.107.193-.213.39-.322.583l-.313.555c-.08.139-.19.285-.23.442a60.39 60.39 0 0 0-.9-.665c-.127-.092-.258-.179-.387-.268.005-.005.01-.007.012-.012.05-.058.097-.117.146-.177a9.05 9.05 0 0 0 .283-.357c.188-.253.377-.505.565-.761.038-.05.077-.131.13-.171.044-.035.056-.013.12.007.147.047.294.097.437.144.147.047.293.097.44.144.071.022.146.047.218.072Zm-.787.451a1.155 1.155 0 0 1-.012-.092.358.358 0 0 0-.092-.156c-.022-.017-.047-.034-.07-.054a.368.368 0 0 0-.175-.047.257.257 0 0 0-.137.03.3.3 0 0 0-.111.071.242.242 0 0 0-.072.114.254.254 0 0 0-.03.134c.002.032.008.062.012.094.015.058.045.11.09.154l.07.055a.344.344 0 0 0 .178.047.253.253 0 0 0 .134-.03.255.255 0 0 0 .111-.072.242.242 0 0 0 .072-.114.268.268 0 0 0 .032-.134Z"/>
    <path fill="#11009A" d="M24.397 66.004c.003.03.007.062.012.092 0 .05-.01.094-.032.134a.242.242 0 0 1-.072.114.255.255 0 0 1-.111.072.253.253 0 0 1-.134.03.344.344 0 0 1-.179-.047l-.07-.055a.336.336 0 0 1-.089-.154c-.005-.032-.01-.062-.012-.094a.253.253 0 0 1 .03-.134.243.243 0 0 1 .072-.114.298.298 0 0 1 .111-.072.257.257 0 0 1 .137-.03c.062 0 .121.018.176.048.022.02.047.037.07.054a.359.359 0 0 1 .091.156Z"/>
    <path fill="#FCA5A5" d="M37.05 42.222a1.61 1.61 0 1 0 0-3.22 1.61 1.61 0 0 0 0 3.22Zm15.124.429a1.61 1.61 0 1 1-.29-3.16c.045.36.087.723.127 1.082.074.687.143 1.381.163 2.078Zm24.711 16.735a1.61 1.61 0 0 1-2.502 1.34c.072-.953.183-1.9.327-2.845a1.608 1.608 0 0 1 2.175 1.505Zm12.843.264a1.61 1.61 0 1 0 0-3.219 1.61 1.61 0 0 0 0 3.22Z"/>
    <path fill="#fff" d="M50.839 23.187c-.335.81-.987 1.416-1.69 1.91-.75.528-1.576.96-2.43 1.291-1.71.665-3.556.922-5.383.753-.185-.017-.178.261 0 .285 1.967.257 4 .01 5.849-.715a11.53 11.53 0 0 0 2.559-1.387c.71-.515 1.383-1.167 1.448-2.089.016-.22-.283-.22-.353-.048Z"/>
    <path fill="#fff" d="M49.586 22.947c-.015-.11-.168-.156-.253-.103a.38.38 0 0 0-.137.124c-.026.04-.045.085-.068.128a3.658 3.658 0 0 1-.479.69c-.25.288-.546.524-.853.75-.058.043-.09.11-.06.181.027.06.104.112.172.084.394-.159.737-.421 1.032-.725a3.553 3.553 0 0 0 .56-.763c.03-.054.062-.11.082-.168.024-.07.014-.126.004-.198ZM85.219 49.81c-.273-.109-.604-.026-.891-.013a10.84 10.84 0 0 1-.954.004 8.268 8.268 0 0 1-1.913-.287 6.378 6.378 0 0 1-3.154-2.037c-.104-.122-.323.043-.225.174a6.303 6.303 0 0 0 3.164 2.25 8.515 8.515 0 0 0 1.97.372c.352.025.706.031 1.06.02.318-.009.71.025.985-.16.133-.09.099-.266-.042-.322Zm.78-1.2c.01.025.001.015-.027-.029a.191.191 0 0 0-.084-.05c-.037-.01-.074-.006-.11-.005l-.207.01a6.399 6.399 0 0 1-.4-.003 11.25 11.25 0 0 1-.397-.023c-.069-.005-.137-.014-.206-.019-.068-.004-.136.002-.204-.002-.166-.01-.192.24-.039.284.066.02.129.047.197.061.067.014.135.023.203.032.144.02.287.035.432.043.138.008.276.011.414.01.069-.001.138-.002.207-.006.035-.002.075-.002.11-.011.053-.015.086-.057.11-.086.05-.06.062-.148 0-.206Z"/>
  </g>
  <defs>
    <clipPath id="a">
      <path fill="#fff" d="M0 .5h124v124H0z"/>
    </clipPath>
  </defs>
</svg>
